<svg width="40" height="36" viewBox="0 0 40 36" fill="none" xmlns="http://www.w3.org/2000/svg">
<rect x="0.5" y="0.5" width="39" height="35" rx="5.5" stroke="#B4B4BD"/>
<path d="M14.336 24.096C12.9067 24.096 11.7813 23.6853 10.96 22.864C10.1387 22.0427 9.728 20.8267 9.728 19.216V12.8H10.912V19.168C10.912 20.4907 11.2107 21.4667 11.808 22.096C12.4053 22.7253 13.248 23.04 14.336 23.04C15.4347 23.04 16.2827 22.7253 16.88 22.096C17.4773 21.4667 17.776 20.4907 17.776 19.168V12.8H18.928V19.216C18.928 20.8267 18.5173 22.0427 17.696 22.864C16.8853 23.6853 15.7653 24.096 14.336 24.096ZM20.1495 24L25.2695 12.8H26.4375L31.5575 24H30.3095L25.6055 13.488H26.0855L21.3815 24H20.1495ZM22.1655 21.008L22.5175 20.048H29.0295L29.3815 21.008H22.1655Z" fill="#B8B8BD"/>
</svg>
