<svg width="71" height="32" viewBox="0 0 71 32" fill="none" xmlns="http://www.w3.org/2000/svg">
<rect width="71" height="32" rx="16" fill="#75787B"/>
<path d="M11.128 21V12.6H12.688V19.68H17.08V21H11.128ZM17.9916 21V12.6H19.5516V21H17.9916ZM23.929 21L20.257 12.6H21.949L25.225 20.196H24.253L27.565 12.6H29.125L25.465 21H23.929ZM31.1314 16.092H35.3074V17.376H31.1314V16.092ZM31.2514 19.692H35.9914V21H29.6914V12.6H35.8234V13.908H31.2514V19.692Z" fill="white"/>
<path fill-rule="evenodd" clip-rule="evenodd" d="M59.7373 24.1915C58.1132 25.3311 56.1347 26 54 26C52.0258 26 50.1853 25.4279 48.635 24.4405L54.1254 18.7875L59.7373 24.1915ZM62.4874 21.2906L56.9103 15.9201L62.2801 10.3911C63.3657 11.9906 64 13.9212 64 16C64 17.9427 63.446 19.756 62.4874 21.2906ZM54.0302 13.1467L59.4214 7.59572C57.8595 6.58608 55.9982 6 54 6C51.9222 6 49.9923 6.63373 48.3932 7.71844L54.0302 13.1467ZM51.2454 16.0141L45.5977 10.5755C44.5868 12.1381 44 14.0005 44 16C44 18.1028 44.6491 20.054 45.7577 21.6643L51.2454 16.0141Z" fill="white"/>
</svg>
